<svg fill="none" height="56" viewBox="0 0 155 56" width="155" xmlns="http://www.w3.org/2000/svg" xmlns:xlink="http://www.w3.org/1999/xlink"><clipPath id="a"><path d="m0 0h155v56h-155z"/></clipPath><g clip-path="url(#a)"><path d="m89.2081 17.72-5.496 8.712 2.448 8.568h-4.56l-1.8-6.336h-1.896l-1.128 6.336h-4.32l3.048-17.28h4.32l-1.272 7.2h1.536l4.56-7.2zm10.3099 13.584c0 .416.208.624.624.624.432 0 .792-.08 1.08-.24l-.12 2.712c-.768.624-1.632.936-2.592.936-1.808 0-2.792-.696-2.952-2.088-.96 1.392-2.256 2.088-3.888 2.088-1.616 0-2.664-.368-3.144-1.104-.32-.464-.48-.992-.48-1.584s.048-1.136.144-1.632l1.344-7.56h4.08l-1.128 6.384c-.048.288-.072.576-.072.864 0 .768.432 1.152 1.296 1.152.72 0 1.296-.248 1.728-.744l1.368-7.656h4.08l-1.344 7.56c-.016.096-.024.192-.024.288zm14.838-5.4c0 .544-.096 1.072-.288 1.584-.176.512-.352.888-.528 1.128l-.264.336h-3.624c.4-.368.6-.824.6-1.368 0-.288-.096-.52-.288-.696-.176-.192-.424-.288-.744-.288-.544 0-1.016.272-1.416.816l-1.344 7.584h-4.08l2.04-11.544h3.792l-.288 1.608c.912-1.296 2.016-1.944 3.312-1.944 1.04 0 1.816.248 2.328.744.528.496.792 1.176.792 2.04zm7.864-2.784c1.728 0 3.032.376 3.912 1.128.688.592 1.032 1.416 1.032 2.472 0 .352-.04.736-.12 1.152l-.504 2.808c-.304 1.696-1.016 2.896-2.136 3.6-1.104.704-2.584 1.056-4.44 1.056s-3.216-.352-4.08-1.056c-.64-.528-.96-1.32-.96-2.376 0-.368.04-.776.12-1.224l.504-2.808c.56-3.168 2.784-4.752 6.672-4.752zm.648 5.232c.032-.16.048-.36.048-.6 0-.256-.104-.536-.312-.84s-.576-.456-1.104-.456c-.512 0-.944.176-1.296.528-.352.336-.576.792-.672 1.368l-.312 1.8c-.032.16-.048.368-.048.624 0 .24.104.504.312.792s.568.432 1.08.432c.528 0 .968-.176 1.32-.528.352-.368.576-.808.672-1.32zm10.571 6.984c-3.328 0-4.992-1.152-4.992-3.456 0-.32.032-.664.096-1.032l.504-2.976c.256-1.536.952-2.712 2.088-3.528 1.152-.816 2.608-1.232 4.368-1.248 3.408 0 5.112 1.184 5.112 3.552 0 .512-.064.976-.192 1.392-.112.4-.232.672-.361.816l-.191.24h-4.08c.4-.352.6-.768.6-1.248 0-.864-.432-1.296-1.296-1.296-.512 0-.952.152-1.32.456s-.608.768-.72 1.392l-.312 1.752c-.032.16-.048.312-.048.456 0 .848.528 1.272 1.584 1.272.352 0 .664-.112.936-.336.288-.224.456-.472.504-.744l3.984.048c-.528 2.992-2.616 4.488-6.264 4.488zm15.523-12.216c1.728 0 3.032.376 3.912 1.128.688.592 1.032 1.416 1.032 2.472 0 .352-.04.736-.12 1.152l-.504 2.808c-.304 1.696-1.016 2.896-2.136 3.6-1.104.704-2.584 1.056-4.44 1.056s-3.216-.352-4.08-1.056c-.64-.528-.96-1.32-.96-2.376 0-.368.04-.776.12-1.224l.504-2.808c.56-3.168 2.784-4.752 6.672-4.752zm.648 5.232c.032-.16.048-.36.048-.6 0-.256-.104-.536-.312-.84s-.576-.456-1.104-.456c-.512 0-.944.176-1.296.528-.352.336-.576.792-.672 1.368l-.312 1.8c-.032.16-.048.368-.048.624 0 .24.104.504.312.792s.568.432 1.08.432c.528 0 .968-.176 1.32-.528.352-.368.576-.808.672-1.32z" fill="#0f1015"/><path d="m37.2038 0h-18.4138c-1.5298 0-2.9969.608218-4.0815 1.68671l-13.02198 13.02339c-1.07837 1.0848-1.68652 2.552-1.68652 4.082v18.4158c0 1.53.60815 2.9972 1.68652 4.082l13.02198 13.0234c1.0846 1.0848 2.5517 1.6867 4.0815 1.6867h18.4138c1.5297 0 2.9968-.6082 4.0815-1.6867l13.0219-13.0234c1.0847-1.0848 1.6865-2.552 1.6865-4.082v-18.4158c0-1.53-.6081-2.9972-1.6865-4.082l-13.0282-13.02339c-1.0784-1.078492-2.5455-1.68671-4.0752-1.68671z" fill="#fff"/><path d="m40.6145 54.8902c-1.1034.7336-1.8495.7712-2.6081.2884-.1693-.1066-.3574-.3009-.4514-.4577-.0941-.1693-.3762-1.0471-.6897-2.1821-.4765-1.7368-.5392-1.9124-.6708-1.95-.3198-.1003-2.721-.2884-5.1536-.4013l-.7963-.0376.2194.395c.4828.8465.9279 1.9124 1.3167 3.1539.1504.4829.2507.8967.2319.9218-.0501.0501-2.8401.8151-2.8714.79-.0126-.0125-.1192-.3511-.2383-.7524-.5141-1.693-1.1097-2.8592-2.0376-4.013l-.3887-.4891-.1818.0941c-.2445.1254-.8276.7838-1.2289 1.3857-.4075.6145-.9718 1.7808-1.373 2.8467-.163.4327-.3135.8089-.3386.834-.0376.0376-2.7022-.9029-2.815-.997-.0878-.0627 1.1724-2.9658 1.6614-3.8562.0126-.0188-.0564-.0251-.1504-.0188-.1004.0125-.7524.0815-1.4609.1505-.7084.0689-1.3417.1567-1.4169.1818-.1379.0627-.2257.2822-.9091 2.2197-.4451 1.2728-.4827 1.3544-.8213 1.6365-.5016.4327-1.2978.6521-1.906.3512 0 0 1.3041 1.0283 3.3731 1.0157 2.6332-.0125 18.6646 0 18.6646 0s1.5987-.0501 3.0407-1.1098zm-11.5611-36.7753c5.0219.2571 7.9185 1.229 8.7586 2.9408.1568.3072.1756.4201.1756.9468 0 .5455-.0188.6333-.2069 1.0158-.2508.5079-.8276 1.0722-1.4671 1.4234-1.2978.721-3.4044 1.091-5.3793.9468-1.6239-.1192-2.6897-.3762-4.0502-.997-.3197-.1379-.6332-.2571-.7085-.2571-.0752 0-.3949.1129-.7147.2446-1.3605.5831-2.5831.7963-4.2758.7399-2.464-.0816-4.1004-.7964-4.6897-2.0379-.1693-.3699-.1818-.4389-.1505-.8778.163-2.2824 1.9624-3.48 5.906-3.9315 1.768-.2007 4.6269-.2696 6.8025-.1568zm20.5078 27.9405c-.0251-.0189-.4514-.1568-.7272-.2571-1.2477-.4389-2.2571-1.0221-3.9185-2.2511-2.301-1.718-3.2665-2.2008-4.9154-2.4642-.5392-.0878-.7398-.0878-1.3542-.0251-.721.069-1.3668.207-2.1254.4578l-.4013.1316.0439.6647c.0188.3637.0564 1.693.0815 2.947l.0376 2.2824-.2758-.0439c-.1505-.0188-.7963-.0815-1.4358-.1316-4.5203-.3637-9.8746-.2822-14.3573.2194-.6019.069-1.1223.1254-1.1536.1254-.0627 0-.0063-2.8028.0877-4.3578.2383-3.7183.7461-6.1825 1.511-7.2736.1379-.1944.2445-.3637.232-.3762-.0126-.0063-.2006-.1003-.4264-.2069-.2257-.1066-.7084-.37-1.0721-.5894-3.2288-1.9438-5.3103-5.0978-5.7993-8.7847-.138-1.0221-.0878-2.8906.094-3.9879.8464-4.9598 3.6113-8.954 7.8119-11.274 1.4985-.8339 3.6552-1.44843 6.3637-1.81838.9843-.13168 3.7805-.15049 4.7649-.03135 4.1504.51416 7.8056 2.26353 10.8714 5.19803.6458.6208.8025.9155.8088 1.4861.0063.6709-.1505.9092-1.2539 1.9626-1.2978 1.2353-1.7116 1.8247-1.7116 2.4642 0 .1317.069.5581.1505.9531.583 2.7025.5203 4.9974-.1944 7.2297-.2508.7775-.7398 1.8434-1.1661 2.5394-.1568.2571-.2759.4766-.2696.4828.0125.0126.3824-.025.8276-.0752 2.1128-.2445 4.0501-.0251 5.9122.6709.815.3073 1.8244.5706 2.7649.7211.5768.0878 1.0721.1129 2.5078.1129 1.7555-.0063 2.7774-.1631 4.1254-.4013 0 0-.0063 3.9628-.0063 4.734 0 .7713-.1254 1.3356-.1254 1.3356-2.4138.6145-5.3918.4515-7.2351-.1505-.3573-.1191-1.1975-.4389-1.8746-.7211-1.9874-.8276-2.9968-1.1035-4.4765-1.254-.8338-.0815-1.6363-.0753-2.0877.0251-.5267.1128-.5141.163.0501.163 1.0658 0 2.3887.2947 3.6552.8089.9467.3824 1.605.7399 2.7837 1.5236 2.2696 1.5049 4.4075 2.3451 7.6865 2.4078zm-24.7398-9.1923c.4201.069 1.3354.163 2.0439.2069l1.2853.0753-1.3793 1.7055c-.7649.9343-1.3982 1.7055-1.417 1.7055-.0188.0063-.2257-.4389-.4514-.9844-.232-.5393-.6019-1.4171-.8276-1.9501l-.4075-.9656.2006.0376c.1129.0188.5392.0941.953.1693z" fill="#0f1015"/><path d="m29.1283 18.0585c5.0219.2571 7.9185 1.229 8.7586 2.9408.1567.3073.1756.4201.1756.9468 0 .5455-.0189.6333-.2069 1.0158-.2508.5079-.8276 1.0722-1.4671 1.4234-1.2978.7211-3.4044 1.091-5.3793.9468-1.6239-.1191-2.6897-.3762-4.0502-.997-.3197-.1379-.6332-.2571-.7085-.2571-.0752 0-.3949.1129-.7147.2446-1.3605.5831-2.5831.7963-4.2758.7399-2.464-.0815-4.1004-.7964-4.6897-2.0379-.1693-.3699-.1818-.4389-.1505-.8778.163-2.2824 1.9624-3.48 5.906-3.9315 1.768-.2007 4.6269-.2696 6.8025-.1568z" fill="#fff"/><path d="m24.8216 36.8633c.42.0689 1.3354.1629 2.0439.2068l1.2852.0753-1.3793 1.7054c-.7649.9343-1.3981 1.7056-1.4169 1.7056-.0188.0063-.2257-.439-.4514-.9845-.232-.5392-.6019-1.4171-.8276-1.95l-.4075-.9657.2006.0378c.1128.0188.5392.094.953.1693z" fill="#fff"/><g fill="#0f1015"><path d="m20.5832 19.9897c-.4639.2194-.7272.4891-.9467.9719-.1442.326-.163.4201-.1379.8778.0439.7838.4013 1.3293 1.0846 1.6679.4389.2132 1.1725.2195 1.6427.0063.3824-.1693.7899-.5831.978-.997.2069-.4514.1881-1.1851-.0376-1.6303-.5016-.9656-1.6238-1.3544-2.5831-.8966z"/><path d="m30.7213 19.9144c-.3699.1317-.9091.6396-1.0659 1.0095-.4263.997-.0376 2.1006.9154 2.5646.3009.1504.4389.1755.8589.1755.4201 0 .558-.0251.859-.1755.9404-.4578 1.3542-1.6491.9028-2.5771-.2069-.4264-.6897-.8716-1.0847-1.0033-.3636-.1254-1.0282-.1191-1.3855.0063z"/></g></g></svg>